<svg width="65" height="64" viewBox="0 0 65 64" fill="none" xmlns="http://www.w3.org/2000/svg">
<path d="M58.4751 7.5H28.4751C26.2691 7.5 24.4751 9.294 24.4751 11.5V29.74C22.6521 29.063 21.2551 27.232 19.1691 27.5C25.7111 22.27 22.0041 11.508 13.5251 11.5C5.04506 11.509 1.33906 22.272 7.88106 27.5H6.52506C4.34906 27.491 2.50506 29.317 2.52506 31.5V39.5C2.52506 40.603 3.42206 41.5 4.52506 41.5H6.52506V43.5C6.52506 44.237 6.93006 44.875 7.52506 45.222V53.5C7.52506 55.154 8.87106 56.5 10.5251 56.5H16.5251C18.1791 56.5 19.5251 55.154 19.5251 53.5V45.222C20.1201 44.875 20.5251 44.237 20.5251 43.5V34.456C21.7874 35.1531 23.1093 35.7364 24.4751 36.199V41.5C24.4751 43.706 26.2691 45.5 28.4751 45.5H42.4751V48.5C42.4751 48.562 42.5001 48.615 42.5101 48.673C39.3471 49.763 40.0961 54.467 43.4751 54.5C46.8551 54.467 47.6031 49.763 44.4401 48.673C44.4501 48.615 44.4751 48.562 44.4751 48.5V45.5H58.4751C60.6811 45.5 62.4751 43.706 62.4751 41.5V11.5C62.4751 9.294 60.6811 7.5 58.4751 7.5ZM6.52506 20.5C6.52506 16.64 9.66506 13.5 13.5251 13.5C22.7991 13.852 22.7961 27.15 13.5251 27.5C9.66506 27.5 6.52506 24.36 6.52506 20.5ZM17.5251 53.5C17.5251 53.7652 17.4197 54.0196 17.2322 54.2071C17.0446 54.3946 16.7903 54.5 16.5251 54.5H15.5251V49.5C15.5251 49.2348 15.4197 48.9804 15.2322 48.7929C15.0446 48.6054 14.7903 48.5 14.5251 48.5C14.2598 48.5 14.0055 48.6054 13.818 48.7929C13.6304 48.9804 13.5251 49.2348 13.5251 49.5V54.5H10.5251C10.2598 54.5 10.0055 54.3946 9.81796 54.2071C9.63042 54.0196 9.52506 53.7652 9.52506 53.5V45.5H17.5251V53.5ZM25.5281 34.447C23.6006 33.8307 21.7648 32.9579 20.0701 31.852C19.9193 31.7532 19.7446 31.6971 19.5645 31.6896C19.3844 31.6821 19.2057 31.7235 19.0472 31.8095C18.8888 31.8954 18.7566 32.0227 18.6646 32.1777C18.5727 32.3327 18.5245 32.5098 18.5251 32.69V43.5H8.52506V34.5C8.52506 34.2348 8.41971 33.9804 8.23217 33.7929C8.04463 33.6054 7.79028 33.5 7.52506 33.5C7.25985 33.5 7.00549 33.6054 6.81796 33.7929C6.63042 33.9804 6.52506 34.2348 6.52506 34.5V39.5H4.52506V31.5C4.50506 30.432 5.43806 29.5 6.52506 29.5H19.8251C20.0331 29.5 20.2381 29.565 20.4051 29.685C23.8691 32.135 28.0621 33.515 32.3251 33.5C32.9381 33.405 33.3221 33.9 33.7991 34.42C33.9111 34.991 33.3491 35.488 32.7551 35.5C30.3051 35.536 27.8661 35.193 25.5281 34.447ZM44.4751 51.5C44.4521 52.814 42.4981 52.814 42.4751 51.5C42.4981 50.186 44.4521 50.186 44.4751 51.5ZM60.4751 41.5C60.4751 42.603 59.5781 43.5 58.4751 43.5H28.4751C27.3731 43.5 26.4751 42.603 26.4751 41.5V36.781C28.3891 37.253 30.3491 37.5 32.3251 37.5C33.7771 37.628 35.2181 36.793 35.6601 35.466C37.0011 35.732 38.2161 34.828 38.7101 34.175C39.4601 33.26 40.1481 33.26 40.8981 34.175C42.2381 35.932 44.7011 35.93 46.0381 34.175C46.7891 33.259 47.4801 33.261 48.2311 34.175C49.5631 35.926 52.0411 35.932 53.3761 34.177C53.8181 33.695 54.0161 33.5 54.4761 33.5C55.7841 33.48 55.7941 31.522 54.4761 31.5C53.1181 31.5 52.4161 32.266 51.9021 32.824C51.4621 33.304 51.2641 33.5 50.8041 33.5C50.3441 33.5 50.1471 33.305 49.7041 32.823C49.1921 32.265 48.4901 31.5 47.1341 31.5C45.7781 31.5 45.0741 32.266 44.5641 32.824C44.1231 33.304 43.9261 33.5 43.4681 33.5C43.0101 33.5 42.8131 33.305 42.3731 32.824C41.8611 32.266 41.1591 31.5 39.8031 31.5C38.4471 31.5 37.7471 32.266 37.2351 32.824C36.6891 33.475 36.2071 33.703 35.5721 33.331C35.0801 32.033 33.6941 31.381 32.3251 31.501C30.3251 31.493 28.3451 31.196 26.4751 30.545V11.5C26.4751 10.397 27.3731 9.5 28.4751 9.5H58.4751C59.5781 9.5 60.4751 10.397 60.4751 11.5V41.5Z" fill="white"/>
<path d="M54.4748 17.5C53.1178 17.5 52.4148 18.265 51.9018 18.824C51.4618 19.304 51.2638 19.5 50.8038 19.5C50.3438 19.5 50.1468 19.305 49.7038 18.824C49.1918 18.265 48.4898 17.5 47.1338 17.5C45.7778 17.5 45.0738 18.266 44.5638 18.825C43.8118 19.74 43.1238 19.74 42.3728 18.825C41.0418 17.071 38.5668 17.069 37.2348 18.825C36.4828 19.741 35.7958 19.74 35.0448 18.825C34.5328 18.265 33.8308 17.5 32.4748 17.5C31.1668 17.52 31.1548 19.477 32.4748 19.5C32.9328 19.5 33.1288 19.695 33.5698 20.175C34.0818 20.735 34.7838 21.5 36.1398 21.5C37.4958 21.5 38.1978 20.734 38.7098 20.175C39.1498 19.695 39.3458 19.5 39.8028 19.5C40.2608 19.5 40.4578 19.695 40.8978 20.175C41.4098 20.735 42.1118 21.5 43.4678 21.5C44.8238 21.5 45.5258 20.735 46.0378 20.176C46.7888 19.259 47.4798 19.261 48.2308 20.176C49.5578 21.925 52.0428 21.933 53.3758 20.176C53.8178 19.696 54.0158 19.5 54.4758 19.5C55.7818 19.48 55.7958 17.522 54.4758 17.5H54.4748ZM54.4748 24.5C53.1178 24.5 52.4148 25.265 51.9018 25.824C51.4618 26.304 51.2638 26.5 50.8038 26.5C50.3438 26.5 50.1468 26.305 49.7038 25.824C49.1918 25.265 48.4898 24.5 47.1338 24.5C45.7778 24.5 45.0738 25.266 44.5638 25.825C43.8118 26.74 43.1238 26.74 42.3728 25.825C41.0418 24.071 38.5668 24.069 37.2348 25.825C36.4828 26.741 35.7958 26.74 35.0448 25.825C34.5328 25.265 33.8308 24.5 32.4748 24.5C31.1668 24.52 31.1548 26.477 32.4748 26.5C32.9328 26.5 33.1288 26.695 33.5698 27.175C34.0818 27.735 34.7838 28.5 36.1398 28.5C37.4958 28.5 38.1978 27.734 38.7098 27.175C39.1498 26.695 39.3458 26.5 39.8028 26.5C40.2608 26.5 40.4578 26.695 40.8978 27.175C41.4098 27.735 42.1118 28.5 43.4678 28.5C44.8238 28.5 45.5258 27.734 46.0378 27.176C46.7888 26.259 47.4798 26.261 48.2308 27.176C49.5578 28.924 52.0428 28.934 53.3758 27.176C53.8178 26.696 54.0158 26.5 54.4758 26.5C55.7818 26.48 55.7958 24.522 54.4758 24.5H54.4748Z" fill="white"/>
</svg>
