<svg width="65" height="64" viewBox="0 0 65 64" fill="none" xmlns="http://www.w3.org/2000/svg">
<path fill-rule="evenodd" clip-rule="evenodd" d="M27.5078 35.2788C27.55 36.0474 27.7658 36.7696 28.1166 37.4072L25.5002 38.2792V44C25.5002 44.5524 25.948 45 26.5002 45C27.0524 45 27.5002 44.5524 27.5002 44V39.7208L29.5502 39.0374C30.3772 39.6426 31.397 40 32.5002 40C33.6034 40 34.6232 39.6426 35.4502 39.0374L37.5002 39.7208V44C37.5002 44.5524 37.948 45 38.5002 45C39.0526 45 39.5002 44.5524 39.5002 44V38.2792L36.8838 37.407C37.2346 36.7696 37.4504 36.0474 37.4926 35.2788L39.6438 35.8166L40.5196 40.1962C40.628 40.7376 41.1548 41.0888 41.6964 40.9806C42.2378 40.8722 42.589 40.3454 42.4808 39.8038L41.3566 34.1834L37.5002 33.2192V33C37.5002 32.6576 37.4658 32.3232 37.4002 32H40.5002V26C40.5002 25.4478 40.0524 25 39.5002 25C38.948 25 38.5002 25.4478 38.5002 26V30H36.5006C36.0952 29.4602 35.583 29.0052 34.9954 28.6662C35.3142 28.1896 35.5002 27.6164 35.5002 27C35.5002 25.3432 34.157 24 32.5002 24C30.8434 24 29.5002 25.3432 29.5002 27C29.5002 27.6164 29.6862 28.1896 30.005 28.6662C29.4174 29.0052 28.9052 29.4602 28.4998 30H26.5002V26C26.5002 25.4478 26.0524 25 25.5002 25C24.948 25 24.5002 25.4478 24.5002 26V32H27.6002C27.5346 32.3232 27.5002 32.6576 27.5002 33V33.2192L23.6438 34.1834L22.5196 39.8038C22.4114 40.3454 22.7626 40.8722 23.304 40.9806C23.8456 41.0888 24.3724 40.7376 24.4808 40.1962L25.3566 35.8166L27.5078 35.2788ZM35.5002 35V34.0228C35.4998 34.0082 35.4998 33.9934 35.5002 33.9788V33C35.5002 31.3432 34.157 30 32.5002 30C30.8434 30 29.5002 31.3432 29.5002 33V33.9786C29.5006 33.9934 29.5006 34.0082 29.5002 34.0228V35C29.5002 36.6568 30.8434 38 32.5002 38C34.157 38 35.5002 36.6568 35.5002 35ZM32.5002 28C33.0524 28 33.5002 27.5522 33.5002 27C33.5002 26.4478 33.0524 26 32.5002 26C31.948 26 31.5002 26.4478 31.5002 27C31.5002 27.5522 31.948 28 32.5002 28Z" fill="white"/>
<path fill-rule="evenodd" clip-rule="evenodd" d="M46.5 46H48.5C50.7092 46 52.5 47.7908 52.5 50V56C52.5 58.2092 50.7092 60 48.5 60H16.5C14.2909 60 12.5 58.2092 12.5 56V50C12.5 47.7908 14.2909 46 16.5 46H18.5V34H10.5V35C10.5 35.5522 10.0523 36 9.5 36H5.5C4.94772 36 4.5 35.5522 4.5 35V31C4.5 30.4478 4.94772 30 5.5 30H9.5C10.0523 30 10.5 30.4478 10.5 31V32H18.5V26C18.5 24.939 18.7065 23.9264 19.0815 23H12.5V10H11.5C10.9477 10 10.5 9.55228 10.5 9V5C10.5 4.44772 10.9477 4 11.5 4H15.5C16.0523 4 16.5 4.44772 16.5 5V9C16.5 9.55228 16.0523 10 15.5 10H14.5V21H20.2546C21.7208 19.1711 23.9736 18 26.5 18H31.5V10H30.5C29.9478 10 29.5 9.55228 29.5 9V5C29.5 4.44772 29.9478 4 30.5 4H34.5C35.0522 4 35.5 4.44772 35.5 5V9C35.5 9.55228 35.0522 10 34.5 10H33.5V18H38.5C41.0264 18 43.2792 19.1711 44.7454 21H50.5V10H49.5C48.9478 10 48.5 9.55228 48.5 9V5C48.5 4.44772 48.9478 4 49.5 4H53.5C54.0522 4 54.5 4.44772 54.5 5V9C54.5 9.55228 54.0522 10 53.5 10H52.5V23H45.9184C46.2934 23.9264 46.5 24.939 46.5 26V32H54.5V31C54.5 30.4478 54.9478 30 55.5 30H59.5C60.0522 30 60.5 30.4478 60.5 31V35C60.5 35.5522 60.0522 36 59.5 36H55.5C54.9478 36 54.5 35.5522 54.5 35V34H46.5V46ZM48.5 48C49.6046 48 50.5 48.8954 50.5 50V56C50.5 57.1046 49.6046 58 48.5 58H16.5C15.3954 58 14.5 57.1046 14.5 56V50C14.5 48.8954 15.3954 48 16.5 48H48.5ZM8.5 34V32H6.5V34H8.5ZM44.5 46H20.5V26C20.5 22.6862 23.1862 20 26.5 20H38.5C41.8138 20 44.5 22.6862 44.5 26V46ZM56.5 32V34H58.5V32H56.5ZM31.5 6V8H33.5V6H31.5ZM50.5 8V6H52.5V8H50.5ZM12.5 6V8H14.5V6H12.5Z" fill="white"/>
</svg>
