<svg width="63" height="63" viewBox="0 0 63 63" fill="none" xmlns="http://www.w3.org/2000/svg">
<path d="M2.12371 62.8493H60.726C61.3867 62.8519 62.0109 62.5459 62.4134 62.0216C62.8101 61.5126 62.9465 60.8471 62.7812 60.2233C62.2288 58.1672 60.6799 56.5266 58.6593 55.8573V27.8816C59.3309 27.1258 59.7031 26.1508 59.7066 25.1394C59.7066 23.6422 58.9079 22.2591 57.6115 21.5107C56.3152 20.7624 54.7181 20.7624 53.4217 21.5107C52.1254 22.2591 51.3266 23.6422 51.3266 25.1394C51.3301 26.1508 51.7028 27.1257 52.3744 27.8816V35.7189C48.4569 39.0709 41.7099 42.9468 31.4243 42.9468C21.1592 42.9468 14.3989 39.0585 10.4742 35.6982V27.8816C11.1459 27.1258 11.5185 26.1508 11.522 25.1394C11.522 23.6422 10.7233 22.2591 9.4269 21.5107C8.13055 20.7624 6.53348 20.7624 5.23711 21.5107C3.94074 22.2591 3.14199 23.6422 3.14199 25.1394C3.1455 26.1508 3.5177 27.1257 4.18933 27.8816V55.8596C3.27044 56.166 2.43225 56.675 1.73653 57.3492C0.933384 58.1436 0.357327 59.1383 0.0675478 60.2299C-0.0955344 60.8516 0.0403664 61.5139 0.435361 62.0208C0.837808 62.5451 1.46209 62.8511 2.12275 62.8485L2.12371 62.8493ZM60.7541 60.7397C60.7475 60.7498 60.7361 60.7555 60.7238 60.7541H50.2794C50.4727 60.0312 50.855 59.3727 51.3877 58.8467C52.2071 58.0514 53.3053 57.6082 54.4473 57.6117H56.5863C57.528 57.6042 58.446 57.9063 59.1987 58.4714C59.9519 59.0365 60.4986 59.8335 60.7541 60.7397L60.7541 60.7397ZM55.5169 29.3297C55.8707 29.3253 56.2228 29.2754 56.5643 29.1811V31.1201C55.94 32.0438 55.2389 32.9132 54.4691 33.7198V29.1811C54.8107 29.2754 55.1627 29.3253 55.5169 29.3297H55.5169ZM56.5643 34.5673V55.5174H54.4691V36.7109C55.2061 36.0353 55.9058 35.3198 56.5643 34.5675V34.5673ZM55.5169 23.0446C56.0724 23.0446 56.6055 23.2655 56.9983 23.6583C57.391 24.0512 57.6116 24.5842 57.6116 25.1397C57.6116 25.6951 57.3911 26.2282 56.9983 26.621C56.6055 27.0138 56.0724 27.2348 55.5169 27.2348C54.961 27.2348 54.4284 27.0138 54.0356 26.621C53.6424 26.2282 53.4218 25.6951 53.4218 25.1397C53.4218 24.5842 53.6423 24.0511 54.0356 23.6583C54.4284 23.2655 54.9611 23.0446 55.5169 23.0446ZM31.4244 45.0418C41.277 45.0418 48.057 41.7476 52.3745 38.4614V55.8605C51.4556 56.1669 50.6178 56.6754 49.922 57.3493C49.1175 58.1428 48.541 59.138 48.2526 60.2309C48.2087 60.4037 48.1877 60.5817 48.1895 60.7596H14.6651C14.6668 60.5808 14.6458 60.4023 14.6019 60.2287C14.0504 58.1695 12.499 56.5265 10.4749 55.8575V38.4617C14.7927 41.7475 21.5721 45.0417 31.425 45.0417L31.4244 45.0418ZM7.33188 29.3295C7.6861 29.3251 8.03815 29.2751 8.37965 29.1809V33.706C7.61113 32.9024 6.91056 32.0366 6.28453 31.1177V29.1809C6.62605 29.2751 6.97809 29.3251 7.33187 29.3295H7.33188ZM8.37922 36.71L8.37966 55.5165H6.28454V34.5664C6.94301 35.3187 7.64275 36.0341 8.37966 36.7098L8.37922 36.71ZM7.33188 23.0448C7.88777 23.0448 8.42043 23.2658 8.81321 23.6586C9.20646 24.0514 9.42698 24.5845 9.42698 25.1399C9.42698 25.6953 9.20647 26.2284 8.81321 26.6212C8.4204 27.014 7.88775 27.235 7.33188 27.235C6.77643 27.235 6.24334 27.014 5.85055 26.6212C5.45777 26.2284 5.23723 25.6953 5.23723 25.1399C5.23723 24.5845 5.45774 24.0514 5.85055 23.6586C6.24336 23.2658 6.77645 23.0448 7.33188 23.0448ZM3.20303 58.8463C4.02241 58.0511 5.1206 57.6079 6.26266 57.6114H8.40166C9.34291 57.6039 10.2609 57.906 11.0141 58.4711C11.7672 59.0362 12.3139 59.8332 12.5695 60.7394C12.5695 60.7394 12.5611 60.7538 12.5392 60.7538H2.09481C2.28859 60.0313 2.6713 59.3728 3.20309 58.8464L3.20303 58.8463Z" fill="white"/>
<path d="M36.6626 32.4718C37.6736 32.4687 38.649 32.0961 39.4048 31.4245H46.09C46.6454 31.4245 47.1785 31.204 47.5713 30.8107C47.9641 30.4179 48.1846 29.8852 48.1846 29.3294V27.2347C48.1846 26.6788 47.9641 26.1462 47.5713 25.7534C47.1785 25.3601 46.6454 25.1396 46.09 25.1396H39.4048C39.1501 24.9156 38.8687 24.724 38.5666 24.5688L36.4811 19.3514L43.4022 17.074C44.1931 16.8122 44.8476 16.2476 45.2234 15.5041C45.5991 14.7601 45.6644 13.8982 45.4057 13.106L44.4241 10.1205L41.8056 2.15953V2.15997C41.5452 1.36865 40.9809 0.713206 40.2374 0.33757C39.4939 -0.0381441 38.6315 -0.103025 37.8398 0.156946L12.9639 8.33574C12.2734 8.56152 11.7487 9.12881 11.5776 9.83503C11.4071 10.5413 11.6145 11.2857 12.1261 11.8021L15.0839 14.7749L15.258 15.2987L13.2677 15.9524V15.952C12.7398 16.1256 12.3023 16.5022 12.0515 16.9984C11.8012 17.4947 11.7582 18.0699 11.9323 18.5982L12.9126 21.5824C13.0862 22.1106 13.4623 22.5482 13.9586 22.7989C14.4548 23.0497 15.0305 23.0927 15.5588 22.9191L17.5491 22.2654C17.809 23.0572 18.3733 23.713 19.1172 24.0887C19.8612 24.4644 20.7239 24.5293 21.5157 24.2689L30.499 21.3159L32.7291 26.9033V26.9037C32.5656 27.3452 32.4788 27.8112 32.4722 28.282C32.4722 29.3934 32.9137 30.4591 33.6998 31.2447C34.4854 32.0303 35.5512 32.4718 36.6625 32.4718L36.6626 32.4718ZM34.5675 28.282C34.5675 27.7266 34.788 27.1935 35.1812 26.8007C35.5741 26.4079 36.1067 26.1869 36.6626 26.1869C36.9243 26.1878 37.1838 26.2387 37.4272 26.3369L37.4469 26.343C37.9195 26.5341 38.3061 26.8906 38.5346 27.3456C38.7634 27.8011 38.8182 28.3241 38.6889 28.8168C38.5595 29.31 38.2553 29.7388 37.8327 30.0233C37.4101 30.3079 36.898 30.4288 36.3925 30.3631C35.8875 30.2978 35.4232 30.0501 35.0874 29.6669C34.7516 29.2837 34.5666 28.7914 34.5675 28.282L34.5675 28.282ZM46.0902 29.3294H40.704C40.9022 28.6454 40.9022 27.9186 40.704 27.2347H46.0902V29.3294ZM38.4949 2.14825C39.0442 1.96763 39.6356 2.26618 39.8166 2.8155L42.1095 9.78119L20.2167 16.9784L16.7862 13.5216L13.6175 10.3256L38.4949 2.14825ZM14.8984 20.9311L13.9168 17.9469L15.9071 17.2933L16.8887 20.2775L14.8984 20.9311ZM20.8554 22.2814H20.8558C20.5919 22.3682 20.3039 22.3467 20.0557 22.2218C19.8076 22.0964 19.6195 21.8781 19.5327 21.6141L18.3806 18.1021L18.7304 18.4541V18.4537C19.1215 18.8509 19.6559 19.0749 20.2135 19.0749C20.4371 19.0749 20.6598 19.0399 20.8725 18.9702L42.7653 11.7729L43.4189 13.7632V13.7628C43.5057 14.0267 43.4847 14.3147 43.3593 14.5629C43.2343 14.811 43.0156 14.9991 42.7517 15.0859L20.8554 22.2814ZM34.4824 20.0069L36.1387 24.1459C35.4329 24.2322 34.7613 24.4988 34.1883 24.9197L32.4882 20.6636L34.4824 20.0069Z" fill="white"/>
<path d="M19.4297 12.7707C19.5406 12.7707 19.6507 12.7536 19.7563 12.7194L37.8142 6.78297C38.364 6.60235 38.663 6.01008 38.4819 5.46079C38.3013 4.91104 37.709 4.61204 37.1597 4.7931L19.1018 10.7282C18.6126 10.8886 18.3131 11.381 18.3947 11.8891C18.4762 12.3972 18.9151 12.7712 19.4297 12.7707L19.4297 12.7707Z" fill="white"/>
</svg>
