<svg width="64" height="64" viewBox="0 0 64 64" fill="none" xmlns="http://www.w3.org/2000/svg">
<path d="M52.8704 14.69L33.1057 4.80761C32.7295 4.61963 32.2705 4.61963 31.8943 4.80761L12.1296 14.69C11.7408 14.8844 11.5 15.2503 11.5 15.647V32.1176C11.5 42.4104 20.9206 50.7843 32.5 50.7843C44.0794 50.7843 53.5 42.4104 53.5 32.1176V15.647C53.5001 15.2503 53.2595 14.8845 52.8704 14.69ZM51.0295 32.1176C51.0295 41.1995 42.7172 48.5882 32.5001 48.5882C22.283 48.5882 13.9707 41.1995 13.9707 32.1176V16.2893L32.5001 7.02456L51.0295 16.2893V32.1176Z" fill="white"/>
<path d="M25.7059 23.8821V26.6272H23.2353C22.553 26.6272 22 27.1189 22 27.7252V32.6664C22 37.8128 26.7103 41.9998 32.5 41.9998C38.2897 41.9998 43 37.8128 43 32.6664V27.7252C43 27.1189 42.4468 26.6272 41.7647 26.6272H39.2941V23.8821C39.2941 22.2689 38.5874 20.7524 37.3042 19.6117C36.021 18.4711 34.3149 17.8429 32.5 17.8429C28.7537 17.8429 25.7059 20.5521 25.7059 23.8821ZM40.5294 32.6664C40.5294 36.6019 36.9274 39.8037 32.5 39.8037C28.0726 39.8037 24.4706 36.6019 24.4706 32.6664V28.8233H40.5294V32.6664ZM36.8235 23.8821V26.6272H28.1765V23.8821C28.1765 21.763 30.116 20.039 32.5 20.039C33.6549 20.039 34.7407 20.4388 35.5572 21.1646C36.3738 21.8904 36.8235 22.8556 36.8235 23.8821Z" fill="white"/>
<path d="M32.4999 31.0192C31.8177 31.0192 31.2646 31.5109 31.2646 32.1172V35.4113C31.2646 36.0177 31.8177 36.5094 32.4999 36.5094C33.1822 36.5094 33.7352 36.0177 33.7352 35.4113V32.1172C33.7352 31.5109 33.1822 31.0192 32.4999 31.0192Z" fill="white"/>
</svg>
