<svg width="63" height="62" viewBox="0 0 63 62" fill="none" xmlns="http://www.w3.org/2000/svg">
<path d="M58.1501 47.9501H43.9095H17.9218H8.18144H5.45017C4.87863 47.9501 4.30759 48.015 3.7779 47.6912C2.78842 47.0926 2.78842 45.944 2.78842 44.8282V40.8167V26.9547V12.2354C2.78842 9.97093 2.70483 7.67379 2.78842 5.40929C2.88611 2.74041 5.49158 3.22552 7.0943 3.22552H16.0124H41.8745C47.2529 3.22552 52.632 3.177 58.0111 3.22552C59.1814 3.24188 59.9895 4.13152 60.0313 5.49002C60.0591 6.34751 60.0313 7.22075 60.0313 8.09405V20.5485V45.2472C60.0323 46.6395 59.5167 47.9015 58.1511 47.95C56.3675 48.0149 56.3534 51.2497 58.1511 51.1847C60.8405 51.0877 62.8049 48.6449 62.8191 45.5556V42.4664V29.2192C62.8191 21.3258 62.8886 13.4153 62.8191 5.5228C62.7914 2.46573 60.7706 0.0721155 58.137 0.00727105C57.6909 -0.00908881 57.2311 0.00727105 56.7855 0.00727105H48.7316H22.5211C16.6688 0.00727105 10.8024 -0.00908881 4.95 0.00727105C2.90151 0.00727105 1.0761 1.23653 0.309701 3.51739C-0.052371 4.58474 0.00304364 5.7169 0.00304364 6.83341V18.2527V44.7956C0.00304364 46.4457 0.170232 47.966 1.13152 49.3081C2.13462 50.6823 3.58387 51.1838 5.08904 51.1838H11.6101H37.0816H57.0912H58.1502C59.9484 51.1838 59.9484 47.9491 58.1507 47.9491L58.1501 47.9501Z" fill="white"/>
<path d="M1.47716 41.2216H7.44136H21.7665H39.0863H53.9962C56.4208 41.2216 58.8596 41.335 61.2837 41.2216H61.3813C63.179 41.2216 63.179 37.9869 61.3813 37.9869H55.4171H41.092H23.7722H8.86232C6.43773 37.9869 3.99895 37.8735 1.57485 37.9869H1.47716C-0.320512 37.9869 -0.320512 41.2216 1.47716 41.2216Z" fill="white"/>
<path d="M19.9002 61.8924H40.0355H42.934C44.7317 61.8924 44.7317 58.6577 42.934 58.6577H22.7987H19.9002C18.1166 58.6572 18.1166 61.8924 19.9002 61.8924Z" fill="white"/>
<path d="M24.1768 49.6817V60.3733C24.1768 62.46 26.9634 62.46 26.9634 60.3733V49.6817C26.9634 47.595 24.1768 47.595 24.1768 49.6817Z" fill="white"/>
<path d="M35.8828 49.6817V60.3733C35.8828 62.46 38.6695 62.46 38.6695 60.3733V49.6817C38.6695 47.595 35.8828 47.595 35.8828 49.6817Z" fill="white"/>
</svg>
