<svg width="63" height="69" viewBox="0 0 63 69" fill="none" xmlns="http://www.w3.org/2000/svg">
<path d="M62.8469 68.2121L62.8447 68.1925C61.7257 58.1815 60.9872 51.567 57.9789 46.4843C54.9459 41.3592 49.8159 37.9843 39.6858 34.452C39.4048 33.5213 38.9126 32.7151 38.2093 32.0536C39.0194 30.8318 39.6093 28.9106 39.9959 26.2481C41.0378 25.5134 41.7997 23.8783 42.3729 21.1599C42.9701 19.2772 42.9383 18.1894 42.2701 17.6376C41.8858 17.3202 41.4098 17.2951 40.9668 17.3828C40.9757 17.0314 40.9629 16.6236 40.931 16.1521C41.1512 15.8259 41.3461 15.4851 41.5115 15.1303C41.512 15.1287 41.5132 15.127 41.5137 15.1253C41.5171 15.1186 41.5204 15.1125 41.5238 15.1057C41.5377 15.0756 41.5484 15.0454 41.5578 15.0136C41.5601 15.0063 41.5618 14.9979 41.5634 14.9907C41.5724 14.9555 41.5791 14.9203 41.583 14.8845C41.5835 14.8806 41.5847 14.8773 41.5852 14.8733L41.8534 11.8539C43.9227 11.7209 45.1533 10.4595 45.0668 8.54493C44.9791 6.60636 43.5221 4.3902 41.2634 2.75897C39.3864 1.40312 36.1311 -0.172833 31.2826 0.0153747C31.2652 0.0159333 31.249 0.0170508 31.2317 0.0192852C27.5703 0.426549 24.1056 1.74662 21.4748 3.73825C19.0893 5.54438 17.7101 7.64885 17.7849 9.36718C17.8095 9.92695 18.1005 11.67 20.6915 11.9711L20.9949 14.8838C20.9954 14.8877 20.9965 14.8922 20.9971 14.8967C21.0021 14.9358 21.0094 14.9749 21.0206 15.0134C21.0211 15.0157 21.0228 15.019 21.0239 15.0218C21.0312 15.0447 21.0396 15.0676 21.0485 15.0905C21.2708 15.6062 21.5569 16.0933 21.8982 16.5486C21.8842 16.8558 21.8787 17.1346 21.8854 17.3832C21.4423 17.2955 20.9658 17.3212 20.582 17.6379C19.9133 18.1904 19.8815 19.277 20.4792 21.1603C21.053 23.8781 21.8144 25.5138 22.8563 26.2484C23.2574 29.0099 23.8769 30.9735 24.7334 32.1864C24.1255 32.8116 23.6932 33.5551 23.4356 34.402C23.3585 34.402 23.2814 34.4121 23.2049 34.4378C13.0502 37.9745 7.91086 41.3517 4.87322 46.4839C1.8649 51.5677 1.12637 58.1816 0.00742081 68.1922L0.0051862 68.2112C0.00295159 68.2274 0.00183425 68.2447 0.00127564 68.2609C-0.0037522 68.3419 0.00630401 68.4201 0.0275323 68.4939C0.0576999 68.5978 0.11077 68.6916 0.181157 68.7698C0.249872 68.8469 0.336459 68.9089 0.433666 68.9486C0.505733 68.9788 0.583388 68.9966 0.664392 69.0017C0.681709 69.0022 0.697911 69.0033 0.714112 69.0022H62.1348H62.1448C62.1577 69.0022 62.1716 69.0017 62.185 69.0017C62.2666 68.9966 62.3443 68.9788 62.4163 68.9486C62.4169 68.9486 62.4169 68.9486 62.418 68.948C62.5152 68.9072 62.6001 68.8458 62.6688 68.7698C62.7392 68.6916 62.7929 68.5972 62.8225 68.4927C62.8437 68.4184 62.8538 68.3397 62.8487 68.2581C62.8493 68.2447 62.8476 68.2285 62.8459 68.2117L62.8469 68.2121ZM59.1224 53.0539C59.5615 54.7064 59.9128 56.5203 60.224 58.5304C60.1486 58.5192 60.0698 58.5192 59.9894 58.5337C59.4877 58.6253 59.1118 58.5589 58.8402 58.3309C58.4749 58.0231 58.0469 57.2287 58.0559 55.1952C58.1542 54.8315 58.1654 54.1851 57.3514 53.574C58.6196 52.879 59.0413 53.0125 59.1224 53.0539L59.1224 53.0539ZM44.5506 37.8257C49.7147 40.0345 53.0924 42.3206 55.399 45.1994C55.0632 45.4698 54.7621 45.7508 54.5252 45.9854C50.68 42.119 47.4152 39.9805 44.5801 39.4721C44.5237 38.8341 44.5276 38.2637 44.5505 37.8257L44.5506 37.8257ZM36.3233 43.3468C35.8725 42.9456 35.3803 42.6155 34.9273 42.3121C34.5155 42.0361 34.1273 41.7741 33.9055 41.5417L32.5692 39.663C35.4926 37.4451 37.2848 35.5809 37.9826 34.0223C39.1479 36.0972 38.5742 39.3815 36.3233 43.3467V43.3468ZM30.2698 42.2719L31.5625 40.6741L32.6815 42.2467L34.5368 61.4422L31.4614 65.274L28.3207 61.5875L30.2698 42.2719ZM31.5983 38.6323C28.6167 36.3848 27.2581 34.8447 26.6581 33.839C28.3262 34.9619 29.8765 35.5239 31.4274 35.5239C33.1228 35.5239 34.819 34.8507 36.6692 33.5071C36.2066 34.4881 34.9295 36.1194 31.5983 38.6322V38.6323ZM22.0916 11.8113C27.7027 10.122 33.8754 10.0409 40.4648 11.5694L40.2441 14.0548C33.4643 13.5185 27.4431 13.5129 22.3229 14.0375L22.0916 11.8113ZM30.8138 7.42473L30.7356 7.41244C29.8798 7.28394 29.6814 7.16998 29.62 6.76831C29.5658 6.41356 29.7206 5.99178 29.8703 5.5834C30.0094 5.2024 30.1541 4.80855 30.1457 4.41247C30.1423 4.24487 30.1138 4.09459 30.0719 3.9622C30.2116 3.99795 30.3652 4.02421 30.5379 4.03091C30.7585 4.03985 31.12 4.00633 31.4474 3.86835C31.6295 3.95159 31.8764 4.03762 32.2608 4.03259C32.4568 4.03035 32.6311 4.0013 32.7881 3.96052C32.6362 4.39794 32.6926 4.76944 32.9306 5.44144C32.9535 5.50624 32.9769 5.57161 33.0015 5.63864C33.1462 6.03361 33.282 6.40623 33.2362 6.7526C33.1809 7.17103 32.9691 7.29506 32.1043 7.41795C31.8836 7.44923 31.6395 7.48387 31.4177 7.566C31.2166 7.49002 31.0049 7.45315 30.8138 7.42466L30.8138 7.42473ZM23.3273 16.0783C23.3027 15.8045 23.1211 15.5738 22.867 15.4816C22.8491 15.4548 22.8295 15.4286 22.8122 15.4017C27.6697 14.9308 33.349 14.9386 39.7266 15.4247C38.1238 17.7537 34.8552 19.1832 31.0853 19.1363C27.7943 19.0961 24.9468 17.938 23.3273 16.0782L23.3273 16.0783ZM19.1922 9.3068C19.0916 7.01799 23.6362 2.2902 31.3613 1.42196C35.7953 1.25547 38.7439 2.67724 40.4389 3.90126C42.3283 5.2655 43.5925 7.11295 43.6596 8.6096C43.7216 9.99562 42.7138 10.38 41.8133 10.4481C41.6842 10.4151 41.5552 10.3844 41.425 10.3525C41.4211 10.3509 41.4161 10.3509 41.4122 10.3492C38.0452 9.52125 34.7781 9.09557 31.6268 9.07433C31.6597 9.06707 31.6916 9.05701 31.7223 9.04472C31.8246 9.0045 31.9134 8.94193 31.9854 8.86261C32.0704 8.84473 32.1988 8.82685 32.2994 8.81289C32.9877 8.71568 34.42 8.51288 34.6301 6.93968C34.7223 6.24918 34.5011 5.64249 34.3229 5.15585C34.3 5.0944 34.2782 5.0335 34.2569 4.97373C34.2111 4.84357 34.1039 4.54079 34.1106 4.44581C34.1156 4.381 34.2413 4.16872 34.2944 4.07822C34.4486 3.81677 34.4184 3.48661 34.2201 3.257C34.1905 3.22292 34.1704 3.19554 34.1514 3.16929C34.1005 3.10169 34.0368 3.01733 33.9151 2.89723C33.8352 2.77042 33.7408 2.67433 33.5586 2.53299C33.3603 2.3788 33.0955 2.34193 32.8614 2.43578L32.7559 2.47936C32.5346 2.57097 32.4022 2.62293 32.2402 2.62572C32.1073 2.62795 32.0816 2.61454 31.9547 2.55198C31.8659 2.50784 31.7553 2.45365 31.6084 2.40673C31.3614 2.32684 31.0911 2.39053 30.9056 2.56762C30.8453 2.59555 30.6978 2.62963 30.5933 2.6246C30.4268 2.6179 30.2877 2.5598 30.0955 2.47992L29.99 2.43411C29.757 2.34025 29.4916 2.37712 29.2928 2.53075C29.0866 2.69109 28.9134 2.90673 28.7609 3.09611C28.7151 3.15309 28.671 3.20784 28.6302 3.25477C28.4307 3.48382 28.4011 3.81454 28.5559 4.07543C28.5738 4.1056 28.5933 4.13744 28.6145 4.17096C28.69 4.29051 28.7358 4.36705 28.7363 4.438C28.7386 4.57096 28.6369 4.8514 28.5458 5.09833C28.3553 5.61954 28.1173 6.2687 28.2263 6.97926C28.4576 8.49379 29.8017 8.69544 30.5251 8.80327L30.6011 8.81445C30.7391 8.83567 30.8391 8.85523 30.8977 8.87255C30.986 8.9664 31.0988 9.03511 31.2223 9.07086C27.7392 9.08539 24.4012 9.59489 21.232 10.6004C20.2996 10.5641 19.2353 10.2993 19.1923 9.30657L19.1922 9.3068ZM23.8217 25.1886C23.3804 24.9696 22.5385 24.1121 21.8514 20.8351C21.8463 20.8116 21.8402 20.7887 21.8324 20.7647C21.3922 19.3887 21.4469 18.8894 21.486 18.7446C21.5905 18.7485 21.8709 18.7955 22.438 19.1044C22.705 19.2508 23.0368 19.2072 23.2586 18.9971C23.4798 18.7871 23.5413 18.4586 23.4106 18.1832C23.4 18.1603 23.3838 18.1178 23.3664 18.0457C25.2887 19.5832 28.0183 20.5049 31.0675 20.5424C31.1334 20.5429 31.1982 20.544 31.2647 20.544C34.5731 20.544 37.5345 19.4988 39.5367 17.7295C39.5088 18.0122 39.4657 18.1373 39.4434 18.1831C39.3127 18.4585 39.3741 18.787 39.5954 18.9971C39.8166 19.2071 40.1484 19.2496 40.416 19.1043C40.983 18.7954 41.2629 18.749 41.368 18.7446C41.4071 18.8881 41.4613 19.3887 41.0216 20.7647C41.0143 20.7876 41.0087 20.811 41.0026 20.8351C40.3154 24.1121 39.473 24.9696 39.0323 25.1886C38.8233 25.2925 38.6792 25.4936 38.6479 25.7249C38.0368 30.2243 36.9904 31.6717 36.2205 32.0946C36.1904 32.1119 36.1608 32.1304 36.1328 32.1516C32.658 34.7935 30.1948 34.7935 26.7201 32.1516C26.6922 32.1304 26.6632 32.1114 26.6324 32.0946C25.8626 31.6723 24.8169 30.2243 24.205 25.7249C24.1738 25.4925 24.0302 25.2925 23.8218 25.1886L23.8217 25.1886ZM25.1395 33.9746C25.844 35.5299 27.6485 37.4002 30.5903 39.6349L29.0607 41.5254C28.8367 41.7667 28.4959 42.0053 28.1015 42.2812C27.6825 42.5745 27.2261 42.8935 26.7898 43.2952C24.5406 39.3315 23.9703 36.0472 25.1396 33.9746H25.1395ZM18.3027 37.8249C18.3256 38.2628 18.3295 38.8332 18.2725 39.4718C15.4374 39.9802 12.1727 42.1187 8.32743 45.9851C8.09112 45.7505 7.78945 45.4684 7.45369 45.1991C9.76038 42.3198 13.1385 40.0339 18.3027 37.825L18.3027 37.8249ZM3.7066 53.1489C3.92559 53.131 4.40046 53.197 5.32611 53.7037C4.51215 54.3159 4.52332 54.9623 4.62164 55.3249C4.6317 57.3584 4.20265 58.1523 3.83785 58.4606C3.56635 58.6897 3.19149 58.7556 2.6887 58.6634C2.66244 58.6584 2.63618 58.655 2.61104 58.6534C2.9211 56.6338 3.27026 54.8104 3.70657 53.149L3.7066 53.1489ZM1.49273 67.5963C1.80391 64.8142 2.08938 62.3115 2.40613 60.0434C2.41507 60.0456 2.42512 60.0473 2.43406 60.049C3.3631 60.2199 4.14023 60.0467 4.74404 59.5372C5.63342 58.787 6.05295 57.3691 6.02727 55.2032C6.02671 55.1311 6.01442 55.0602 5.99207 54.9926C6.02503 54.949 6.10883 54.8602 6.30939 54.735C6.3837 54.6892 6.4485 54.6294 6.50045 54.559L6.96079 53.9451C7.07866 53.7881 7.12558 53.5898 7.09095 53.3959C7.05576 53.2032 6.94123 53.0328 6.77643 52.9283C6.00158 52.4356 5.01048 51.8781 4.10277 51.758C4.25305 51.2736 4.41394 50.8032 4.58489 50.3474C5.20443 50.4284 6.18437 50.7798 7.69103 51.8027C8.01281 52.0217 8.45024 51.9373 8.66922 51.6155C8.88765 51.2937 8.80386 50.8563 8.48207 50.6373C7.18489 49.7563 6.07928 49.2195 5.13409 49.0144C5.56369 48.0641 6.05419 47.1731 6.61844 46.334C7.26647 46.8642 7.7771 47.4519 7.78379 47.4591C7.91284 47.6089 8.09942 47.6971 8.29607 47.7027C8.49606 47.7061 8.68432 47.6306 8.82232 47.4887C12.8569 43.3273 16.2747 41.0738 18.9814 40.7916C19.3032 40.7581 19.5607 40.5095 19.606 40.1883C19.7791 38.9503 19.7311 37.8772 19.673 37.2559C20.7618 36.8185 21.9238 36.3833 23.1634 35.9442C23.012 38.3827 23.9841 41.4301 26.0595 44.8323C26.1796 45.0295 26.3896 45.1552 26.6204 45.1692C26.6343 45.1697 26.6472 45.1697 26.6612 45.1697C26.8768 45.1697 27.0818 45.0703 27.2159 44.8993C27.6505 44.3429 28.1885 43.9407 28.7231 43.5647L26.8885 61.7448C26.869 61.9353 26.9288 62.1264 27.0528 62.2722L30.9405 66.8358C31.0746 66.9928 31.2707 67.0833 31.4768 67.0833H31.4874C31.6975 67.0799 31.8952 66.9838 32.026 66.8201L35.8136 62.1006C35.9286 61.9576 35.9828 61.7755 35.9655 61.5923L34.2197 43.5309C34.8113 43.9286 35.4661 44.3789 35.9024 44.9381C36.0365 45.1096 36.2415 45.2085 36.4572 45.2085C36.4711 45.2085 36.484 45.208 36.498 45.208C36.7287 45.1951 36.9382 45.0689 37.0589 44.8711C39.118 41.4952 40.0901 38.4689 39.9578 36.0399C41.0969 36.446 42.1706 36.8505 43.18 37.2561C43.1214 37.8773 43.0739 38.9505 43.2471 40.1885C43.2918 40.5086 43.5493 40.7583 43.8717 40.7918C46.5784 41.0745 49.9961 43.3275 54.0307 47.4889C54.1682 47.6303 54.3587 47.7096 54.5564 47.7023C54.7542 47.6968 54.9397 47.6085 55.0687 47.4588C55.0754 47.4515 55.586 46.8638 56.2346 46.3336C56.7692 47.128 57.2363 47.9683 57.6491 48.8621C56.681 49.0493 55.5408 49.5929 54.195 50.5074C53.8732 50.7258 53.7894 51.1638 54.0079 51.4856C54.2263 51.8074 54.6643 51.8912 54.986 51.6727C56.595 50.58 57.6039 50.2538 58.2133 50.204C58.3882 50.6598 58.5508 51.1291 58.7044 51.6135C57.7619 51.6945 56.7122 52.2822 55.9006 52.7984C55.7358 52.9039 55.6213 53.0732 55.5861 53.266C55.5509 53.4587 55.5972 53.6576 55.7151 53.8151L56.1754 54.4291C56.228 54.4983 56.2922 54.5581 56.3665 54.605C56.5665 54.7291 56.6509 54.819 56.6838 54.8626C56.662 54.9302 56.6497 55.0017 56.6486 55.0732C56.6224 57.2392 57.0425 58.657 57.9319 59.4073C58.5358 59.9173 59.314 60.0888 60.2418 59.919C60.305 59.9078 60.3642 59.8877 60.42 59.8609C60.748 62.176 61.0396 64.7396 61.3597 67.596H1.49219L1.49273 67.5963ZM49.736 53.8551H38.2227C37.8339 53.8551 37.5182 54.1708 37.5182 54.5596V57.169C37.5182 57.5579 37.8339 57.8735 38.2227 57.8735H49.736C50.1248 57.8735 50.4404 57.5579 50.4404 57.169V54.5596C50.4393 54.1708 50.1248 53.8551 49.736 53.8551ZM49.0315 56.4646H38.9272V55.2635H49.0315V56.4646ZM50.4393 61.007V65.4584C50.4393 65.8472 50.1237 66.1628 49.7349 66.1628H38.2227C37.8339 66.1628 37.5183 65.8472 37.5183 65.4584V61.007C37.5183 60.6182 37.8339 60.3026 38.2227 60.3026C38.6116 60.3026 38.9272 60.6182 38.9272 61.007V64.755H49.0315V61.007C49.0315 60.6182 49.3471 60.3026 49.736 60.3026C50.1248 60.3026 50.4393 60.6182 50.4393 61.007H50.4393ZM45.1053 62.8103C45.1053 62.1891 44.6003 61.684 43.9791 61.684C43.3578 61.684 42.8528 62.1891 42.8528 62.8103C42.8528 63.4315 43.3578 63.9365 43.9791 63.9365C44.6003 63.9365 45.1053 63.4315 45.1053 62.8103ZM43.6975 62.8103C43.6975 62.655 43.8243 62.5282 43.9796 62.5282C44.1349 62.5282 44.2617 62.655 44.2617 62.8103C44.2617 62.9656 44.1349 63.0924 43.9796 63.0924C43.8243 63.0924 43.6975 62.9656 43.6975 62.8103ZM25.1113 61.007V65.4584C25.1113 65.8472 24.7956 66.1628 24.4068 66.1628H12.8941C12.5053 66.1628 12.1896 65.8472 12.1896 65.4584V61.007C12.1896 60.6182 12.5053 60.3026 12.8941 60.3026C13.2829 60.3026 13.5986 60.6182 13.5986 61.007V64.755H23.7029V61.007C23.7029 60.6182 24.0185 60.3026 24.4073 60.3026C24.7956 60.3026 25.1112 60.6182 25.1112 61.007H25.1113ZM18.651 63.9365C19.2722 63.9365 19.7772 63.4315 19.7772 62.8103C19.7772 62.1891 19.2722 61.684 18.651 61.684C18.0298 61.684 17.5247 62.1891 17.5247 62.8103C17.5247 63.4315 18.0298 63.9365 18.651 63.9365ZM18.651 62.5287C18.8063 62.5287 18.9331 62.6555 18.9331 62.8109C18.9331 62.9662 18.8063 63.093 18.651 63.093C18.4957 63.093 18.3689 62.9662 18.3689 62.8109C18.3683 62.6544 18.4946 62.5287 18.651 62.5287Z" fill="white"/>
</svg>
